<svg xmlns:xlink="http://www.w3.org/1999/xlink" xmlns="http://www.w3.org/2000/svg" width="394" height="116" viewBox="0 0 394 116" fill="none">
<path d="M16.1818 109.04C10.4526 109.04 5.79413 104.458 5.79413 98.8274V19.4927C5.79413 13.862 10.4526 9.28003 16.1818 9.28003H377.82C383.547 9.28003 388.208 13.862 388.208 19.4927V98.8274C388.208 104.458 383.55 109.04 377.82 109.04H16.1818Z" fill="black"/>
<path d="M377.821 109.91H16.1795C9.97282 109.91 4.92499 104.938 4.92499 98.8273V19.4926C4.92499 13.3817 9.97514 8.40991 16.1795 8.40991H377.818C384.025 8.40991 389.073 13.3817 389.073 19.4926V98.8273C389.075 104.938 384.025 109.91 377.821 109.91ZM16.1795 10.1499C10.9323 10.1499 6.66322 14.3422 6.66322 19.4926V98.8273C6.66322 103.978 10.9323 108.17 16.1795 108.17H377.818C383.068 108.17 387.334 103.978 387.334 98.8273V19.4926C387.334 14.3422 383.065 10.1499 377.818 10.1499H16.1795Z" fill="#C3CCD4"/>
<path d="M70.2733 38.6814C70.0671 38.6652 65.6821 38.338 65.6821 38.338C65.6821 38.338 62.6367 35.3128 62.303 34.9764C62.2218 34.8952 62.1222 34.8395 62.0133 34.8047L59.8416 85.0373L76.9992 81.3068C76.9992 81.3068 70.811 39.4308 70.7716 39.1454C70.7322 38.8577 70.4796 38.7 70.2733 38.6814Z" fill="white"/>
<path d="M61.0607 34.8209C61.0236 34.8325 60.3955 35.0251 59.3572 35.3476C58.3398 32.4174 56.5459 29.7262 53.387 29.7262C53.2989 29.7262 53.2108 29.7308 53.1204 29.7355C52.2212 28.5476 51.111 28.0303 50.1492 28.0303C42.793 28.0303 39.2794 37.236 38.1762 41.9132C35.3186 42.7994 33.2883 43.4304 33.0288 43.5116C31.4342 44.0128 31.3832 44.0638 31.1746 45.5672C31.017 46.7063 26.8406 79.0239 26.8406 79.0239L59.0582 85.0675L61.2322 34.7815C61.1673 34.7931 61.107 34.807 61.0607 34.8209ZM52.8794 37.0342C52.8794 37.1456 52.8794 37.25 52.8771 37.3544C51.0855 37.9088 49.141 38.512 47.1919 39.1152C48.2858 34.8859 50.3393 32.8443 52.1331 32.074C52.5851 33.2085 52.8794 34.8372 52.8794 37.0342ZM49.9476 30.0046C50.2651 30.0046 50.5849 30.1113 50.8909 30.3224C48.5338 31.4337 46.0053 34.2293 44.9391 39.8159C43.3794 40.2984 41.8544 40.7717 40.4452 41.2102C41.6968 36.9484 44.6633 30.0046 49.9476 30.0046ZM51.2153 54.9028C51.2153 54.9028 49.3102 53.8844 46.9764 53.8844C43.5532 53.8844 43.3817 56.035 43.3817 56.5756C43.3817 59.5312 51.0786 60.6634 51.0786 67.5863C51.0786 73.0336 47.6276 76.5415 42.9738 76.5415C37.3906 76.5415 34.5329 73.0615 34.5329 73.0615L36.0278 68.1176C36.0278 68.1176 38.9642 70.6394 41.4395 70.6394C43.0572 70.6394 43.7154 69.3634 43.7154 68.4331C43.7154 64.5772 37.3998 64.4056 37.3998 58.0696C37.3998 52.7383 41.224 47.5786 48.9417 47.5786C51.9153 47.5786 53.3846 48.4324 53.3846 48.4324L51.2153 54.9028ZM54.8077 36.7558C54.8077 36.5609 54.81 36.3707 54.81 36.1619C54.81 34.3407 54.5574 32.8744 54.1518 31.7121C55.7788 31.9163 56.8634 33.77 57.561 35.902C56.7429 36.1572 55.8135 36.4449 54.8077 36.7558Z" fill="white"/>
<path d="M102.605 82.4086C96.8336 82.4086 94.1567 78.7894 93.6005 75.205L97.3203 74.6482C97.7722 77.119 98.989 79.3462 102.605 79.3462C105.316 79.3462 107.263 77.7802 107.263 75.4486C107.263 72.943 105.942 71.899 102.083 70.8573C97.0769 69.6393 94.4348 67.8297 94.4348 63.5493C94.4348 59.6865 97.5984 56.8677 102.361 56.8677C107.054 56.8677 109.94 59.3733 110.6 63.0621L106.95 63.6537C106.463 61.2525 104.795 59.8953 102.363 59.8953C99.5823 59.8953 98.1222 61.2525 98.1222 63.2709C98.1222 65.3589 99.0261 66.4029 103.128 67.4469C108.169 68.6997 111.055 70.4397 111.055 75.1029C111.052 79.3485 107.68 82.4086 102.605 82.4086Z" fill="white"/>
<path d="M114.598 55.4758H118.283V66.6466C119.118 64.9414 121.03 63.5146 123.846 63.5146C127.322 63.5146 129.721 65.533 129.721 70.3354V82.063H125.966V70.5442C125.966 67.8646 124.854 66.6466 122.455 66.6466C120.23 66.6466 118.283 68.0734 118.283 70.8574V82.063H114.598V55.4758Z" fill="white"/>
<path d="M132.78 72.2842C132.78 66.9598 136.465 63.5146 141.402 63.5146C146.339 63.5146 150.024 66.925 150.024 72.2147V73.6414C150.024 79.0007 146.304 82.411 141.367 82.411C136.396 82.411 132.78 78.931 132.78 73.711V72.2842ZM141.402 79.4531C144.392 79.4531 146.199 77.2258 146.199 73.711V72.2494C146.199 68.665 144.357 66.4726 141.402 66.4726C138.412 66.4726 136.57 68.6302 136.57 72.2147V73.6762C136.57 77.2606 138.343 79.4531 141.402 79.4531Z" fill="white"/>
<path d="M156.905 63.8626V66.751C157.913 65.011 160.033 63.5146 162.606 63.5146C166.882 63.5146 170.046 66.6466 170.046 72.0754V73.6414C170.046 79.105 166.986 82.411 162.537 82.411C159.825 82.411 157.843 81.019 156.905 79.279V88.2922H153.22V63.8626H156.905ZM161.705 79.4159C164.625 79.4159 166.224 77.4323 166.224 73.7435V72.1775C166.224 68.3495 164.277 66.4703 161.705 66.4703C158.889 66.4703 156.837 68.3495 156.837 72.2819V73.6391C156.835 77.5738 158.747 79.4159 161.705 79.4159Z" fill="white"/>
<path d="M172.931 58.5731C172.931 57.3203 173.939 56.3459 175.191 56.3459C176.477 56.3459 177.485 57.3203 177.485 58.5731C177.485 59.8259 176.477 60.8003 175.191 60.8003C173.905 60.8003 172.931 59.8259 172.931 58.5731ZM173.348 63.8627H177.068V82.0631H173.348V63.8627Z" fill="white"/>
<path d="M182.109 66.8207H179.745V63.8627H182.109V61.2527C182.109 57.4247 184.125 55.3367 187.984 55.3367C189.166 55.3367 190.07 55.4759 190.8 55.7543V58.7123C190.314 58.4687 189.34 58.2947 188.436 58.2947C186.524 58.2947 185.864 59.4083 185.864 61.1135V63.8627H190.592V66.8207H185.864V82.0631H182.109V66.8207Z" fill="white"/>
<path d="M200.986 75.9036L205.297 63.8628H208.982L199.63 88.2924H195.911L199.005 80.2536L192.26 63.8628H196.293L200.986 75.9036Z" fill="white"/>
<path d="M231.51 75.6597H222.714L220.837 82.0629H217.187L224.663 57.1809H229.911L237.313 82.0629H233.35L231.51 75.6597ZM223.549 72.7365H230.675L227.095 60.4173L223.549 72.7365Z" fill="white"/>
<path d="M243.782 63.8626V66.751C244.792 65.011 246.913 63.5146 249.483 63.5146C253.761 63.5146 256.923 66.6466 256.923 72.0754V73.6414C256.923 79.105 253.866 82.411 249.416 82.411C246.704 82.411 244.723 81.019 243.782 79.279V88.2922H240.097V63.8626H243.782ZM248.579 79.4159C251.499 79.4159 253.099 77.4323 253.099 73.7435V72.1775C253.099 68.3495 251.152 66.4703 248.579 66.4703C245.763 66.4703 243.712 68.3495 243.712 72.2819V73.6391C243.712 77.5738 245.622 79.4159 248.579 79.4159Z" fill="white"/>
<path d="M263.841 63.8626V66.751C264.849 65.011 266.97 63.5146 269.542 63.5146C273.818 63.5146 276.982 66.6466 276.982 72.0754V73.6414C276.982 79.105 273.923 82.411 269.473 82.411C266.761 82.411 264.782 81.019 263.841 79.279V88.2922H260.156V63.8626H263.841ZM268.638 79.4159C271.559 79.4159 273.156 77.4323 273.156 73.7435V72.1775C273.156 68.3495 271.209 66.4703 268.638 66.4703C265.82 66.4703 263.769 68.3495 263.769 72.2819V73.6391C263.771 77.5738 265.683 79.4159 268.638 79.4159Z" fill="white"/>
<path d="M295.266 82.4086C289.495 82.4086 286.818 78.7894 286.262 75.205L289.979 74.6482C290.431 77.119 291.65 79.3462 295.264 79.3462C297.975 79.3462 299.922 77.7802 299.922 75.4486C299.922 72.943 298.603 71.899 294.744 70.8573C289.738 69.6393 287.096 67.8297 287.096 63.5493C287.096 59.6865 290.257 56.8677 295.023 56.8677C299.713 56.8677 302.601 59.3733 303.262 63.0621L299.611 63.6537C299.125 61.2525 297.456 59.8953 295.025 59.8953C292.244 59.8953 290.784 61.2525 290.784 63.2709C290.784 65.3589 291.687 66.4029 295.787 67.4469C300.831 68.6997 303.714 70.4397 303.714 75.1029C303.714 79.3485 300.344 82.4086 295.266 82.4086Z" fill="white"/>
<path d="M311.71 58.8862V63.8626H316.264V66.8206H311.71V76.9126C311.71 78.583 312.544 79.2442 314.076 79.2442C314.98 79.2442 315.849 79.105 316.475 78.8266V81.7846C315.777 82.0978 314.804 82.3066 313.448 82.3066C309.73 82.3066 307.992 80.4622 307.992 77.2606V66.8206H305.593V63.8626H307.992V58.8862H311.71Z" fill="white"/>
<path d="M318.561 72.2842C318.561 66.9598 322.246 63.5146 327.182 63.5146C332.119 63.5146 335.804 66.925 335.804 72.2147V73.6414C335.804 79.0007 332.084 82.411 327.147 82.411C322.176 82.411 318.563 78.931 318.563 73.711V72.2842H318.561ZM327.182 79.4531C330.172 79.4531 331.977 77.2258 331.977 73.711V72.2494C331.977 68.665 330.135 66.4726 327.182 66.4726C324.192 66.4726 322.35 68.6302 322.35 72.2147V73.6762C322.35 77.2606 324.123 79.4531 327.182 79.4531Z" fill="white"/>
<path d="M339.002 63.8629H342.687V67.0993C343.797 64.8721 345.364 63.5845 348.945 63.6193V67.1341C344.84 67.1689 342.687 68.2825 342.687 72.0757V82.0634H339.002V63.8629Z" fill="white"/>
<path d="M358.781 82.4086C353.81 82.4086 350.301 79.1374 350.301 73.7086V72.2818C350.301 66.9574 353.777 63.5122 358.607 63.5122C362.849 63.5122 366.571 66.0178 366.571 72.1078V73.7434H354.055C354.092 77.6758 355.863 79.5202 358.888 79.5202C361.532 79.5202 362.816 77.8846 363.199 76.5274L366.432 77.293C365.766 79.7661 363.3 82.4086 358.781 82.4086ZM354.088 71.1705H362.883V71.0661C362.742 67.7253 361.145 66.3333 358.605 66.3333C356.348 66.3333 354.435 67.7601 354.088 71.1705Z" fill="white"/>
<path d="M97.0839 35.1482H103.773V36.8372H99.2138V40.1524H102.857V41.8089H99.2138V46.435H97.0839V35.1482Z" fill="white"/>
<path d="M106.681 35.1482H108.827V46.4373H106.681V35.1482Z" fill="white"/>
<path d="M112.385 35.1482H114.876L119.009 42.9782V35.1482H120.949V46.4373H118.772L114.309 37.9902V46.4373H112.383V35.1482H112.385Z" fill="white"/>
<path d="M128.022 35.1482C131.603 35.1482 133.401 37.0576 133.401 40.1687V41.3356C133.401 44.4143 131.635 46.435 128.022 46.435H124.425V35.1482H128.022ZM126.555 36.8209V44.7484H127.943C130.166 44.7484 131.193 43.5466 131.193 41.338V40.2012C131.193 38.0366 130.247 36.8209 127.927 36.8209H126.555Z" fill="white"/>
<path d="M141.038 35.1482H143.182V46.4373H141.038V35.1482Z" fill="white"/>
<path d="M148.918 36.8372H145.968V35.1482H153.996V36.8372H151.064V46.4373H148.92V36.8372H148.918Z" fill="white"/>
<path d="M160.798 41.4006V40.1525C160.798 37.0738 162.849 35.0044 165.798 35.0044C168.762 35.0044 170.767 37.0089 170.767 40.1362V41.3519C170.767 44.463 168.827 46.5928 165.784 46.5928C162.741 46.5928 160.798 44.463 160.798 41.4006ZM168.56 41.3844V40.1525C168.56 38.083 167.582 36.6957 165.8 36.6957C164.018 36.6957 163.023 38.0854 163.023 40.1525V41.3844C163.023 43.5466 164.034 44.8737 165.8 44.8737C167.566 44.8737 168.56 43.5304 168.56 41.3844Z" fill="white"/>
<path d="M173.833 35.1482H176.324L180.457 42.9782V35.1482H182.396V46.4373H180.22L175.756 37.9902V46.4373H173.83V35.1482H173.833Z" fill="white"/>
<path d="M192.557 36.8372H189.607V35.1482H197.635V36.8372H194.701V46.4373H192.557V36.8372Z" fill="white"/>
<path d="M200.372 35.1482H202.502V39.8856H206.857V35.1482H208.984V46.4373H206.857V41.621H202.502V46.4373H200.372V35.1482Z" fill="white"/>
<path d="M212.477 35.1482H219.212V36.8372H214.607V39.8369H218.327V41.4331H214.607V44.7484H219.465V46.4373H212.477V35.1482Z" fill="white"/>
</svg>